<?xml version="1.0" encoding="UTF-8" standalone="no"?>
<!DOCTYPE svg PUBLIC "-//W3C//DTD SVG 1.1//EN" "http://www.w3.org/Graphics/SVG/1.1/DTD/svg11.dtd">
<svg width="100%" height="100%" viewBox="0 0 205 204" version="1.1" xmlns="http://www.w3.org/2000/svg" xmlns:xlink="http://www.w3.org/1999/xlink" xml:space="preserve" xmlns:serif="http://www.serif.com/" style="fill-rule:evenodd;clip-rule:evenodd;stroke-linejoin:round;stroke-miterlimit:2;">
    <g transform="matrix(1,0,0,1,-1617.03,-248.733)">
        <g transform="matrix(4.16667,0,0,4.16667,0,0)">
            <g transform="matrix(-0.707107,0.707107,0.707107,0.707107,407.205,89.2109)">
                <rect x="-12.266" y="-5.081" width="10.162" height="10.162" style="fill:rgb(0,74,136);"/>
            </g>
            <g transform="matrix(1,0,0,1,412.286,68.172)">
                <path d="M0,31.854C-8.779,31.854 -15.896,24.737 -15.896,15.958C-15.896,7.179 -8.779,0.062 0,0.062C8.779,0.062 15.896,7.179 15.896,15.958C15.896,24.737 8.779,31.854 0,31.854M17.549,20.282L24.852,15.958L17.549,11.634C17.461,11.276 17.365,10.92 17.257,10.57L21.175,3.608L13.104,3.519C12.985,3.394 12.867,3.267 12.745,3.145L12.654,-5.099L5.708,-1.19C5.283,-1.331 4.853,-1.46 4.415,-1.57L0.326,-8.476L-3.66,-1.744C-4.349,-1.603 -5.021,-1.417 -5.679,-1.2L-12.252,-4.899L-12.337,2.756C-12.593,2.996 -12.842,3.243 -13.083,3.497L-20.821,3.752L-17.084,10.063C-17.303,10.697 -17.487,11.346 -17.635,12.009L-24.199,15.896L-17.668,19.763C-17.502,20.539 -17.286,21.295 -17.024,22.03L-20.522,28.247L-13.171,28.327C-12.823,28.697 -12.463,29.054 -12.086,29.393L-12.003,36.954L-5.368,33.22C-4.797,33.398 -4.213,33.547 -3.618,33.668L0.326,40.33L4.373,33.495C4.979,33.345 5.574,33.165 6.154,32.955L12.904,36.753L12.995,28.512C13.038,28.467 13.08,28.422 13.123,28.377L21.473,28.102L17.327,21.1C17.407,20.83 17.481,20.557 17.549,20.282" style="fill:rgb(0,74,136);fill-rule:nonzero;"/>
            </g>
        </g>
    </g>
</svg>
