<?xml version="1.0" encoding="UTF-8" standalone="no"?>
<!DOCTYPE svg PUBLIC "-//W3C//DTD SVG 1.1//EN" "http://www.w3.org/Graphics/SVG/1.1/DTD/svg11.dtd">
<svg width="100%" height="100%" viewBox="0 0 251 374" version="1.1" xmlns="http://www.w3.org/2000/svg" xmlns:xlink="http://www.w3.org/1999/xlink" xml:space="preserve" xmlns:serif="http://www.serif.com/" style="fill-rule:evenodd;clip-rule:evenodd;stroke-linejoin:round;stroke-miterlimit:2;">
    <g transform="matrix(1,0,0,1,-197.318,-862.185)">
        <g transform="matrix(4.16667,0,0,4.16667,0,0)">
            <g transform="matrix(1,0,0,1,59.0244,251.704)">
                <path d="M0,0C0,3.748 2.351,7.107 5.85,8.359C7.816,9.062 9.402,8.898 10.091,10.865C11.33,14.4 14.66,15.721 18.378,15.721C22.097,15.721 25.427,14.4 26.665,10.865C27.354,8.898 28.94,8.359 30.907,7.656C34.406,6.404 36.757,3.748 36.757,0C36.757,-3.749 34.406,-6.405 30.907,-7.656C28.94,-8.359 27.354,-9.602 26.666,-11.569C25.428,-15.104 22.097,-16.424 18.378,-16.424C14.66,-16.424 11.33,-15.104 10.091,-11.569C9.403,-9.602 7.817,-9.063 5.85,-8.359C2.351,-7.108 0,-3.749 0,0M39.218,0C39.218,4.785 36.211,9.076 31.736,10.676C30.461,11.131 29.434,12.164 28.988,13.437C27.405,17.957 23.141,20.994 18.378,20.994C13.616,20.994 9.352,17.957 7.769,13.437C7.323,12.164 6.296,11.131 5.021,10.676C0.546,9.075 -2.461,4.785 -2.461,0C-2.461,-4.785 0.546,-9.076 5.021,-10.676C6.296,-11.132 7.323,-12.164 7.769,-13.437C9.352,-17.957 13.616,-20.994 18.378,-20.994C23.141,-20.994 27.405,-17.957 28.988,-13.437C29.434,-12.164 30.461,-11.132 31.736,-10.676C36.211,-9.076 39.218,-4.786 39.218,0" style="fill:rgb(0,55,100);fill-rule:nonzero;"/>
            </g>
            <g transform="matrix(1,0,0,1,80.4141,263.592)">
                <path d="M0,-23.777L0.386,-23.516L0.386,-3.079L3.59,0.595L-6.377,0.595L-6.806,0.083L2.651,0.083L0,-2.828L0,-23.777ZM-8.845,-22.618L-8.554,-22.618C-7.987,-22.618 -7.703,-22.305 -7.703,-21.679C-7.703,-21.477 -7.731,-21.348 -7.787,-21.293C-7.703,-21.126 -7.505,-21.042 -7.191,-21.042C-6.188,-21.126 -5.387,-21.407 -4.789,-21.887C-4.19,-22.347 -3.577,-23.175 -2.95,-24.372L-0.856,-24.372L-0.856,-2.828L1.325,-0.647L-6.806,-0.647L-4.279,-2.828L-4.279,-18.767C-4.905,-18.572 -5.602,-18.433 -6.373,-18.349C-7.706,-18.461 -8.588,-18.885 -9.018,-19.623L-8.758,-19.623C-8.39,-19.087 -7.595,-18.774 -6.373,-18.683C-5.408,-18.801 -4.71,-19.031 -4.279,-19.372L-4.279,-20.437C-4.995,-19.985 -5.835,-19.713 -6.801,-19.623C-8.676,-19.769 -9.613,-20.412 -9.613,-21.553C-9.613,-22.096 -9.357,-22.451 -8.845,-22.618" style="fill:rgb(0,55,100);fill-rule:nonzero;"/>
            </g>
            <g transform="matrix(1,0,0,1,102.715,251.862)">
                <path d="M0,8.599C-0.195,8.756 -0.506,8.513 -0.344,8.296C0.582,7.062 0.993,5.932 0.906,4.39C0.854,3.478 0.785,2.649 1.22,1.815C1.862,0.584 3.326,-0.157 4.66,0.361C4.799,0.416 4.865,0.578 4.779,0.709C4.408,1.276 3.864,1.676 3.468,2.223C2.835,3.096 2.803,3.996 2.477,4.989C2.041,6.315 1.077,7.733 0,8.599" style="fill:rgb(0,55,100);fill-rule:nonzero;"/>
            </g>
            <g transform="matrix(1,0,0,1,102.715,251.836)">
                <path d="M0,-8.599C-0.195,-8.756 -0.506,-8.513 -0.344,-8.296C0.582,-7.062 0.993,-5.932 0.906,-4.39C0.854,-3.478 0.785,-2.649 1.22,-1.815C1.862,-0.584 3.326,0.157 4.66,-0.361C4.799,-0.416 4.865,-0.578 4.779,-0.709C4.408,-1.276 3.864,-1.676 3.468,-2.223C2.835,-3.096 2.803,-3.996 2.477,-4.989C2.041,-6.315 1.077,-7.733 0,-8.599" style="fill:rgb(0,55,100);fill-rule:nonzero;"/>
            </g>
            <g transform="matrix(0.686918,-0.726735,-0.726735,-0.686918,103.251,251.539)">
                <path d="M-1.341,-0.578C-2.361,-0.578 -3.188,0.249 -3.187,1.268C-3.188,2.288 -2.361,3.114 -1.341,3.114C-0.322,3.115 0.505,2.288 0.505,1.268C0.505,0.25 -0.321,-0.578 -1.341,-0.578" style="fill:rgb(0,55,100);fill-rule:nonzero;"/>
            </g>
            <g transform="matrix(1,0,0,1,52.1738,251.862)">
                <path d="M0,8.599C0.195,8.756 0.506,8.513 0.344,8.296C-0.582,7.062 -0.993,5.932 -0.906,4.39C-0.854,3.478 -0.785,2.649 -1.22,1.815C-1.862,0.584 -3.326,-0.157 -4.66,0.361C-4.799,0.416 -4.865,0.578 -4.779,0.709C-4.408,1.276 -3.864,1.676 -3.468,2.223C-2.835,3.096 -2.803,3.996 -2.477,4.989C-2.041,6.315 -1.077,7.733 0,8.599" style="fill:rgb(0,55,100);fill-rule:nonzero;"/>
            </g>
            <g transform="matrix(1,0,0,1,52.1738,251.836)">
                <path d="M0,-8.599C0.195,-8.756 0.506,-8.513 0.344,-8.296C-0.582,-7.062 -0.993,-5.932 -0.906,-4.39C-0.854,-3.478 -0.785,-2.649 -1.22,-1.815C-1.862,-0.584 -3.326,0.157 -4.66,-0.361C-4.799,-0.416 -4.865,-0.578 -4.779,-0.709C-4.408,-1.276 -3.864,-1.676 -3.468,-2.223C-2.835,-3.096 -2.803,-3.996 -2.477,-4.989C-2.041,-6.315 -1.077,-7.733 0,-8.599" style="fill:rgb(0,55,100);fill-rule:nonzero;"/>
            </g>
            <g transform="matrix(0.686783,0.726863,0.726863,-0.686783,51.6379,251.538)">
                <path d="M1.342,-0.578C2.362,-0.578 3.188,0.249 3.188,1.268C3.188,2.288 2.361,3.114 1.342,3.114C0.322,3.114 -0.504,2.287 -0.504,1.268C-0.504,0.249 0.323,-0.578 1.342,-0.578" style="fill:rgb(0,55,100);fill-rule:nonzero;"/>
            </g>
            <g transform="matrix(1,0,0,1,68.8325,296.07)">
                <path d="M0,-4.359C-0.157,-4.554 0.086,-4.865 0.303,-4.702C1.537,-3.777 2.667,-3.366 4.209,-3.453C5.121,-3.504 5.95,-3.574 6.784,-3.139C8.015,-2.497 8.756,-1.033 8.238,0.301C8.183,0.44 8.021,0.506 7.89,0.42C7.323,0.049 6.923,-0.495 6.376,-0.89C5.503,-1.523 4.603,-1.555 3.61,-1.882C2.284,-2.318 0.866,-3.282 0,-4.359" style="fill:rgb(0,55,100);fill-rule:nonzero;"/>
            </g>
            <g transform="matrix(1,0,0,1,86.0566,296.07)">
                <path d="M0,-4.359C0.157,-4.554 -0.086,-4.865 -0.303,-4.702C-1.537,-3.777 -2.667,-3.366 -4.209,-3.453C-5.121,-3.504 -5.95,-3.574 -6.784,-3.139C-8.015,-2.497 -8.756,-1.033 -8.238,0.301C-8.183,0.44 -8.021,0.506 -7.89,0.42C-7.323,0.049 -6.923,-0.495 -6.376,-0.89C-5.503,-1.523 -4.603,-1.555 -3.61,-1.882C-2.284,-2.318 -0.866,-3.282 0,-4.359" style="fill:rgb(0,55,100);fill-rule:nonzero;"/>
            </g>
            <g transform="matrix(0.726863,0.686783,0.686783,-0.726863,75.808,290.508)">
                <path d="M1.268,-0.504C0.249,-0.504 -0.578,0.323 -0.578,1.342C-0.578,2.362 0.249,3.188 1.268,3.188C2.288,3.188 3.115,2.361 3.114,1.342C3.114,0.323 2.287,-0.504 1.268,-0.504" style="fill:rgb(0,55,100);fill-rule:nonzero;"/>
            </g>
            <g transform="matrix(1,0,0,1,68.8325,207.383)">
                <path d="M0,4.359C-0.157,4.554 0.086,4.865 0.303,4.703C1.537,3.777 2.667,3.366 4.209,3.453C5.121,3.505 5.95,3.574 6.784,3.139C8.015,2.497 8.756,1.033 8.238,-0.301C8.183,-0.44 8.021,-0.506 7.89,-0.42C7.323,-0.049 6.923,0.495 6.376,0.891C5.503,1.524 4.603,1.556 3.61,1.882C2.284,2.318 0.866,3.282 0,4.359" style="fill:rgb(0,55,100);fill-rule:nonzero;"/>
            </g>
            <g transform="matrix(1,0,0,1,86.0566,207.383)">
                <path d="M0,4.359C0.157,4.554 -0.086,4.865 -0.303,4.703C-1.537,3.777 -2.667,3.366 -4.209,3.453C-5.121,3.505 -5.95,3.574 -6.784,3.139C-8.015,2.497 -8.756,1.033 -8.238,-0.301C-8.183,-0.44 -8.021,-0.506 -7.89,-0.42C-7.323,-0.049 -6.923,0.495 -6.376,0.891C-5.503,1.524 -4.603,1.556 -3.61,1.882C-2.284,2.318 -0.866,3.282 0,4.359" style="fill:rgb(0,55,100);fill-rule:nonzero;"/>
            </g>
            <g transform="matrix(-0.726863,0.686783,0.686783,0.726863,79.4946,213.154)">
                <path d="M1.268,-3.188C2.288,-3.188 3.114,-2.361 3.114,-1.342C3.114,-0.322 2.287,0.504 1.268,0.504C0.248,0.504 -0.578,-0.323 -0.578,-1.342C-0.578,-2.361 0.249,-3.188 1.268,-3.188" style="fill:rgb(0,55,100);fill-rule:nonzero;"/>
            </g>
        </g>
    </g>
</svg>
