<?xml version="1.0" encoding="UTF-8" standalone="no"?><!DOCTYPE svg PUBLIC "-//W3C//DTD SVG 1.1//EN" "http://www.w3.org/Graphics/SVG/1.1/DTD/svg11.dtd"><svg width="100%" height="100%" viewBox="0 0 46 46" version="1.1" xmlns="http://www.w3.org/2000/svg" xmlns:xlink="http://www.w3.org/1999/xlink" xml:space="preserve" xmlns:serif="http://www.serif.com/" style="fill-rule:evenodd;clip-rule:evenodd;stroke-linejoin:round;stroke-miterlimit:2;"><path d="M14.179,22.763c-0,4.729 3.834,8.563 8.563,8.563c4.729,0 8.563,-3.834 8.563,-8.563c-0,-4.729 -3.834,-8.563 -8.563,-8.563c-4.729,0 -8.563,3.834 -8.563,8.563" style="fill:#602263;fill-rule:nonzero;"/><path d="M45.483,22.72l-8.454,-8.367l0.087,16.821l8.367,-8.454Z" style="fill:#602263;fill-rule:nonzero;"/><path d="M0,22.763l8.411,8.411l0,-16.822l-8.411,8.411Z" style="fill:#602263;fill-rule:nonzero;"/><path d="M22.763,45.483l8.367,-8.454l-16.821,0.087l8.454,8.367Z" style="fill:#602263;fill-rule:nonzero;"/><path d="M22.72,0l-8.411,8.411l16.822,0l-8.411,-8.411Z" style="fill:#602263;fill-rule:nonzero;"/></svg>