<?xml version="1.0" encoding="UTF-8" standalone="no"?>
<!DOCTYPE svg PUBLIC "-//W3C//DTD SVG 1.1//EN" "http://www.w3.org/Graphics/SVG/1.1/DTD/svg11.dtd">
<svg width="100%" height="100%" viewBox="0 0 208 208" version="1.1" xmlns="http://www.w3.org/2000/svg" xmlns:xlink="http://www.w3.org/1999/xlink" xml:space="preserve" xmlns:serif="http://www.serif.com/" style="fill-rule:evenodd;clip-rule:evenodd;stroke-linejoin:round;stroke-miterlimit:2;">
    <g transform="matrix(1,0,0,1,-916.932,-246.591)">
        <g transform="matrix(4.16667,0,0,4.16667,0,0)">
            <g transform="matrix(1,0,0,1,245.007,67.4679)">
                <path d="M0,0L-8.372,8.286L-8.372,-8.286L0,0Z" style="fill:rgb(123,104,86);fill-rule:nonzero;"/>
            </g>
            <g transform="matrix(1,0,0,1,245.007,67.4679)">
                <path d="M0,0L8.372,8.286L8.372,-8.286L0,0Z" style="fill:rgb(123,104,86);fill-rule:nonzero;"/>
            </g>
            <g transform="matrix(1,0,0,1,245.007,100.731)">
                <path d="M0,0L-8.372,8.286L-8.372,-8.286L0,0Z" style="fill:rgb(123,104,86);fill-rule:nonzero;"/>
            </g>
            <g transform="matrix(1,0,0,1,245.007,100.731)">
                <path d="M0,0L8.372,8.286L8.372,-8.286L0,0Z" style="fill:rgb(123,104,86);fill-rule:nonzero;"/>
            </g>
            <g transform="matrix(1,0,0,1,228.35,75.7536)">
                <path d="M0,8.372L-8.286,0L8.286,0L0,8.372Z" style="fill:rgb(123,104,86);fill-rule:nonzero;"/>
            </g>
            <g transform="matrix(1,0,0,1,228.35,92.4976)">
                <path d="M0,-8.372L-8.286,0L8.286,0L0,-8.372Z" style="fill:rgb(123,104,86);fill-rule:nonzero;"/>
            </g>
            <g transform="matrix(1,0,0,1,261.665,75.7536)">
                <path d="M0,8.372L-8.286,0L8.286,0L0,8.372Z" style="fill:rgb(123,104,86);fill-rule:nonzero;"/>
            </g>
            <g transform="matrix(1,0,0,1,261.665,92.4976)">
                <path d="M0,-8.372L-8.286,0L8.286,0L0,-8.372Z" style="fill:rgb(123,104,86);fill-rule:nonzero;"/>
            </g>
            <g transform="matrix(-1,0,0,1,489.583,-184.177)">
                <rect x="238.131" y="261.204" width="13.321" height="13.321" style="fill:rgb(123,104,86);"/>
            </g>
        </g>
    </g>
</svg>
