<?xml version="1.0" encoding="UTF-8" standalone="no"?><!DOCTYPE svg PUBLIC "-//W3C//DTD SVG 1.1//EN" "http://www.w3.org/Graphics/SVG/1.1/DTD/svg11.dtd"><svg width="100%" height="100%" viewBox="0 0 42 42" version="1.1" xmlns="http://www.w3.org/2000/svg" xmlns:xlink="http://www.w3.org/1999/xlink" xml:space="preserve" xmlns:serif="http://www.serif.com/" style="fill-rule:evenodd;clip-rule:evenodd;stroke-linejoin:round;stroke-miterlimit:2;"><path d="M38.46,38.28l-0.053,-10.423l-10.37,10.476l10.423,-0.053Z" style="fill:#7f1235;fill-rule:nonzero;"/><path d="M3.422,3.548l0,10.423l10.423,-10.423l-10.423,-0Z" style="fill:#7f1235;fill-rule:nonzero;"/><path d="M3.591,38.472l10.423,-0.053l-10.476,-10.37l0.053,10.423Z" style="fill:#7f1235;fill-rule:nonzero;"/><path d="M38.308,3.451l-10.423,0l10.423,10.423l-0,-10.423Z" style="fill:#7f1235;fill-rule:nonzero;"/><path d="M20.896,11.888l9.1,9.007l-9.007,9.101l-9.101,-9.007l9.008,-9.101Z" style="fill:#7f1235;"/><path d="M20.835,0l-20.835,21.05l21.05,20.834l20.835,-21.049l-21.05,-20.835Zm0.022,4.243l16.785,16.613l-16.614,16.786l-16.785,-16.614l16.614,-16.785Z" style="fill:#7f1235;fill-rule:nonzero;"/></svg>