<?xml version="1.0" encoding="UTF-8" standalone="no"?><!DOCTYPE svg PUBLIC "-//W3C//DTD SVG 1.1//EN" "http://www.w3.org/Graphics/SVG/1.1/DTD/svg11.dtd"><svg width="100%" height="100%" viewBox="0 0 39 39" version="1.1" xmlns="http://www.w3.org/2000/svg" xmlns:xlink="http://www.w3.org/1999/xlink" xml:space="preserve" xmlns:serif="http://www.serif.com/" style="fill-rule:evenodd;clip-rule:evenodd;stroke-linejoin:round;stroke-miterlimit:2;"><path d="M0,19.06l19.059,-19.06c-10.526,0 -19.059,8.534 -19.059,19.06" style="fill:#ae802c;fill-rule:nonzero;"/><path d="M19.059,0l19.06,19.06c0,-10.527 -8.534,-19.06 -19.06,-19.06" style="fill:#ae802c;fill-rule:nonzero;"/><path d="M19.059,38.12l-19.059,-19.059c0,10.526 8.533,19.059 19.059,19.059" style="fill:#ae802c;fill-rule:nonzero;"/><path d="M38.119,19.06l-19.06,19.059c10.527,0 19.06,-8.533 19.06,-19.059" style="fill:#ae802c;fill-rule:nonzero;"/><path d="M23.537,14.583l8.186,4.477l-8.186,4.478l-4.477,8.186l-4.478,-8.186l-8.186,-4.478l8.186,-4.477l4.478,-8.186l4.477,8.186Z" style="fill:#ae802c;fill-rule:nonzero;"/></svg>